<mxfile host="app.diagrams.net" modified="2022-11-18T03:05:35.675Z" agent="5.0 (Macintosh; Intel Mac OS X 10_15_7) AppleWebKit/537.36 (KHTML, like Gecko) Chrome/107.0.0.0 Safari/537.36" etag="SrSA3vGytb-h0FP7e0kb" version="20.5.3" type="github">
  <diagram id="lBPD0ZvzE_yoeRYTYM-U" name="第 1 页">
    <mxGraphModel dx="926" dy="574" grid="1" gridSize="10" guides="1" tooltips="1" connect="1" arrows="1" fold="1" page="1" pageScale="1" pageWidth="827" pageHeight="1169" math="0" shadow="0">
      <root>
        <mxCell id="0" />
        <mxCell id="1" parent="0" />
        <mxCell id="yZb1dpGz2Jr0d8dS6OHa-3" value="" style="edgeStyle=orthogonalEdgeStyle;rounded=0;orthogonalLoop=1;jettySize=auto;html=1;" edge="1" parent="1" source="yZb1dpGz2Jr0d8dS6OHa-1" target="yZb1dpGz2Jr0d8dS6OHa-2">
          <mxGeometry relative="1" as="geometry" />
        </mxCell>
        <mxCell id="yZb1dpGz2Jr0d8dS6OHa-1" value="" style="ellipse;whiteSpace=wrap;html=1;" vertex="1" parent="1">
          <mxGeometry x="50" y="210" width="120" height="80" as="geometry" />
        </mxCell>
        <mxCell id="yZb1dpGz2Jr0d8dS6OHa-5" value="" style="edgeStyle=orthogonalEdgeStyle;rounded=0;orthogonalLoop=1;jettySize=auto;html=1;" edge="1" parent="1" source="yZb1dpGz2Jr0d8dS6OHa-2" target="yZb1dpGz2Jr0d8dS6OHa-4">
          <mxGeometry relative="1" as="geometry" />
        </mxCell>
        <mxCell id="yZb1dpGz2Jr0d8dS6OHa-2" value="" style="rhombus;whiteSpace=wrap;html=1;" vertex="1" parent="1">
          <mxGeometry x="270" y="210" width="80" height="80" as="geometry" />
        </mxCell>
        <mxCell id="yZb1dpGz2Jr0d8dS6OHa-7" value="" style="edgeStyle=orthogonalEdgeStyle;rounded=0;orthogonalLoop=1;jettySize=auto;html=1;" edge="1" parent="1" source="yZb1dpGz2Jr0d8dS6OHa-4" target="yZb1dpGz2Jr0d8dS6OHa-6">
          <mxGeometry relative="1" as="geometry" />
        </mxCell>
        <mxCell id="yZb1dpGz2Jr0d8dS6OHa-4" value="" style="whiteSpace=wrap;html=1;" vertex="1" parent="1">
          <mxGeometry x="250" y="380" width="120" height="60" as="geometry" />
        </mxCell>
        <mxCell id="yZb1dpGz2Jr0d8dS6OHa-9" value="" style="edgeStyle=orthogonalEdgeStyle;rounded=0;orthogonalLoop=1;jettySize=auto;html=1;" edge="1" parent="1" source="yZb1dpGz2Jr0d8dS6OHa-6" target="yZb1dpGz2Jr0d8dS6OHa-8">
          <mxGeometry relative="1" as="geometry" />
        </mxCell>
        <mxCell id="yZb1dpGz2Jr0d8dS6OHa-6" value="" style="rhombus;whiteSpace=wrap;html=1;" vertex="1" parent="1">
          <mxGeometry x="270" y="510" width="80" height="80" as="geometry" />
        </mxCell>
        <mxCell id="yZb1dpGz2Jr0d8dS6OHa-8" value="Actor" style="shape=umlActor;verticalLabelPosition=bottom;verticalAlign=top;html=1;outlineConnect=0;" vertex="1" parent="1">
          <mxGeometry x="295" y="700" width="30" height="60" as="geometry" />
        </mxCell>
      </root>
    </mxGraphModel>
  </diagram>
</mxfile>
